PathFileType	4	(X/Y/Z)	D:\Research_projects\MuscleProsody\BulkSports2Dtrack\RetrackedSports2D\p1_sample60_cam2\p1_sample60_cam2_Sports2D\p1_sample60_cam2_Sports2D_px_person00.trc
DataRate	CameraRate	NumFrames	NumMarkers	Units	OrigDataRate	OrigDataStartFrame	OrigNumFrames
60	60	4	22	m	60	97	780
Frame#	Time	Hip			RHip			RKnee			RAnkle			RBigToe			RSmallToe			RHeel			LHip			LKnee			LAnkle			LBigToe			LSmallToe			LHeel			Neck			Head			Nose			RShoulder			RElbow			RWrist			LShoulder			LElbow			LWrist		
		X1	Y1	Z1	X2	Y2	Z2	X3	Y3	Z3	X4	Y4	Z4	X5	Y5	Z5	X6	Y6	Z6	X7	Y7	Z7	X8	Y8	Z8	X9	Y9	Z9	X10	Y10	Z10	X11	Y11	Z11	X12	Y12	Z12	X13	Y13	Z13	X14	Y14	Z14	X15	Y15	Z15	X16	Y16	Z16	X17	Y17	Z17	X18	Y18	Z18	X19	Y19	Z19	X20	Y20	Z20	X21	Y21	Z21	X22	Y22	Z22
97	1.6166666666666667	247.2045997561371	516.1930535240504	0.0	218.69623626090277	521.5058060038427	0.0	219.51493251069053	635.9723187994359	0.0	223.78625752302017	724.8404364096201	0.0	227.0200644409758	766.4680658792269	0.0	208.60362295582178	760.4647103798006	0.0	228.04532276369852	733.2578497434328	0.0	275.71978051423457	523.092386181929	0.0	269.96286532989996	635.1443975753606	0.0	267.2103582443038	727.6361970740742	0.0	263.69634641270767	764.8532425943513	0.0	281.1398432805504	759.5429572466967	0.0	262.9101651528378	735.9071630214704	0.0	255.2351096890537	327.7590087392882	0.0	254.76985527478496	246.65248982665682	0.0	246.80813667815906	289.29138984271356	0.0	203.3754645003801	361.67416634961154	0.0	169.71645962476632	427.8624425332972	0.0	174.85198354442977	442.33087594241	0.0	308.2650720318402	362.74999276359523	0.0	320.29352664452927	443.745288901528	0.0	326.2366030125882	516.8241993604148	0.0
98	1.6333333333333333	247.20369755279526	515.9739108165452	0.0	218.72889992416097	521.0730256013597	0.0	219.52164608701824	635.7625698635618	0.0	223.7416217084176	725.1348769207103	0.0	227.01192667488533	766.3746731594351	0.0	208.58927253171424	760.4371788715664	0.0	228.024114777159	733.6422079080847	0.0	275.7002597200421	522.6867377947183	0.0	269.9800794116326	634.9697268419768	0.0	267.26569284640175	727.7286017478997	0.0	263.78236465233493	764.8676056907407	0.0	281.15456516278977	759.5320350307793	0.0	262.94364790101696	735.9923999741906	0.0	255.1062840813931	327.5817489633497	0.0	254.79590935366681	246.61281566901854	0.0	246.75731461167777	289.2034413577285	0.0	203.1661435535801	361.5873743153388	0.0	167.6296909955581	427.3267106437563	0.0	175.32694626690216	442.9566913936336	0.0	308.0934888100347	362.61677969660803	0.0	320.77195591750944	442.67138477329826	0.0	327.0553404487196	514.159988748849	0.0
99	1.65	247.17916476554967	515.7325299575251	0.0	218.74589081717778	520.6519931746623	0.0	219.5171874611615	635.5370075595545	0.0	223.70896109247138	725.407202414881	0.0	226.9421427448071	766.24382312099	0.0	208.5510276902918	760.3726990145395	0.0	228.03192840279377	734.0414254516388	0.0	275.641031144439	522.281604436882	0.0	269.9617703551895	634.8073545915082	0.0	267.3277640660051	727.7426739030909	0.0	263.8578639238602	764.8924257247639	0.0	281.17692138185294	759.5612256196994	0.0	263.01852975759016	736.0310173496023	0.0	254.95771002819114	327.4670311191532	0.0	254.80838833505732	246.6047768548406	0.0	246.6690976663759	289.1441883781255	0.0	202.96824216611984	361.45213477164856	0.0	165.39048027176986	426.62274019727914	0.0	175.3762510296407	442.456278064856	0.0	307.891667795815	362.4397454633374	0.0	321.42776517469053	441.3359346063487	0.0	328.50488109983013	510.59706100200526	0.0
100	1.6666666666666667	247.1331583028945	515.4789180722804	0.0	218.74627996715685	520.2465904792597	0.0	219.49104737287033	635.3046254709443	0.0	223.69018566064798	725.6395401600238	0.0	226.812670482841	766.0811695406115	0.0	208.48600636212865	760.2731992746151	0.0	228.06436701384703	734.4290517708488	0.0	275.5438647385064	521.884241092927	0.0	269.90282345881013	634.6605682020852	0.0	267.39605899171823	727.6700018095077	0.0	263.9091393975656	764.9279382253196	0.0	281.198755286088	759.6341657849197	0.0	263.1402099592808	736.0109442238839	0.0	254.79929233470617	327.416634540665	0.0	254.8064233461413	246.63359088336023	0.0	246.55105468768485	289.1151621403058	0.0	202.80215342249116	361.2718201066118	0.0	163.1080530251111	425.6672083760486	0.0	174.814895817866	440.9358608133989	0.0	307.6647502656111	362.2237727765003	0.0	322.3126706052239	439.7453720935874	0.0	330.74149507390007	506.0780372455506	0.0
